<svg width="119" height="40" viewBox="0 0 119 40" fill="none" xmlns="http://www.w3.org/2000/svg">
<path d="M37.6068 30.8952C36.461 30.5512 35.5482 30.0828 34.8708 29.5034L35.8948 27.1987C36.5484 27.7173 37.3501 28.1354 38.3106 28.4688C39.2605 28.8022 40.221 28.9609 41.1815 28.9609C42.3643 28.9609 43.2533 28.7757 43.8434 28.3947C44.4334 28.0137 44.7192 27.5083 44.7192 26.8918C44.7192 26.4367 44.5578 26.053 44.227 25.7566C43.8936 25.4603 43.4888 25.2274 42.9834 25.0554C42.478 24.8835 41.8007 24.6982 40.9248 24.4892C39.705 24.2061 38.7181 23.9097 37.9666 23.6266C37.2152 23.3435 36.5616 22.8884 36.0192 22.2719C35.4767 21.6553 35.2068 20.8166 35.2068 19.7687C35.2068 18.8823 35.4397 18.0806 35.9213 17.3529C36.4028 16.6253 37.1278 16.059 38.091 15.6277C39.0647 15.1965 40.2475 14.9874 41.6393 14.9874C42.613 14.9874 43.5735 15.1118 44.5234 15.3579C45.4733 15.6039 46.2856 15.9506 46.963 16.4057L46.0263 18.7103C45.3251 18.3029 44.5975 17.9827 43.8328 17.7737C43.0681 17.5646 42.3299 17.4535 41.6154 17.4535C40.4459 17.4535 39.5701 17.6519 39.0038 18.0462C38.4376 18.4404 38.1413 18.9696 38.1413 19.6232C38.1413 20.0783 38.3027 20.4488 38.6334 20.7451C38.9642 21.0415 39.3716 21.2637 39.877 21.4357C40.3824 21.6077 41.0598 21.7929 41.9356 22.002C43.1184 22.2719 44.1053 22.5576 44.8568 22.8646C45.6215 23.1609 46.275 23.616 46.8175 24.2193C47.3599 24.8226 47.6298 25.6481 47.6298 26.6854C47.6298 27.5718 47.3969 28.3735 46.9154 29.0879C46.4338 29.8024 45.7088 30.3686 44.7351 30.7999C43.7614 31.2312 42.5654 31.4402 41.1736 31.4402C39.9538 31.427 38.771 31.2418 37.6121 30.8978L37.6068 30.8952Z" fill="black"/>
<path d="M61.307 15.8712C62.331 16.3263 63.1195 16.9799 63.6725 17.8424C64.2281 18.6918 64.498 19.7026 64.498 20.8853C64.498 22.0681 64.2281 23.0551 63.6725 23.9177C63.1168 24.7803 62.3415 25.4338 61.307 25.8889C60.283 26.344 59.0764 26.5795 57.6846 26.5795H54.0728V31.2021H51.1014V15.1912H57.6819C59.0632 15.1912 60.2697 15.4134 61.3043 15.8685L61.307 15.8712ZM60.4946 23.2403C61.1614 22.6846 61.5054 21.9093 61.5054 20.8853C61.5054 19.8613 61.172 19.0728 60.4946 18.5304C59.8279 17.9747 58.8435 17.7049 57.5496 17.7049H54.0728V24.0526H57.5496C58.8435 24.0526 59.8305 23.7827 60.4946 23.2403Z" fill="black"/>
<path d="M76.5532 27.4924H68.5543L66.9773 31.1889H63.908L71.1051 15.1912H74.0263L81.2498 31.1889H78.1434L76.5532 27.4924ZM75.5662 25.1507L72.5472 18.1494L69.5519 25.1507H75.5662Z" fill="black"/>
<path d="M93.8818 31.1889L90.6167 26.5054C90.4817 26.5187 90.2727 26.5293 90.0002 26.5293H86.3884V31.1889H83.4169V15.1912H89.9975C91.3787 15.1912 92.5985 15.424 93.6199 15.8818C94.6439 16.3369 95.4324 16.9904 95.9854 17.853C96.5411 18.7024 96.811 19.7132 96.811 20.8959C96.811 22.0787 96.5146 23.1397 95.9351 24.0023C95.3424 24.8649 94.5063 25.5185 93.4082 25.9498L97.0941 31.2127H93.8766V31.1889H93.8818ZM92.8102 18.5304C92.1434 17.9747 91.1591 17.7049 89.8652 17.7049H86.3884V24.0764H89.8652C91.1591 24.0764 92.1461 23.7933 92.8102 23.2376C93.4744 22.682 93.821 21.8935 93.821 20.8721C93.821 19.8613 93.4876 19.0728 92.8102 18.5304Z" fill="black"/>
<path d="M105.884 24.4971L103.344 27.0982V31.1889H100.372V15.1912H103.344V23.399L111.255 15.1912H114.595L107.877 22.3406L115.013 31.1889H111.536L105.879 24.4971H105.884Z" fill="black"/>
<path d="M12.356 35.8882L0.0785748 21.6051C-0.151627 21.3378 0.160601 20.9515 0.470182 21.1208L8.7257 25.6005C9.11466 25.8122 9.4163 26.1588 9.56977 26.5742L12.8931 35.5706C13.0149 35.9014 12.5862 36.1554 12.356 35.8882Z" fill="url(#paint0_linear_9104_25245)"/>
<path d="M14.1288 32.6045L10.7419 15.8606C10.6917 15.6119 10.7419 15.3499 10.8769 15.1356L16.7881 5.88518C16.9071 5.69996 17.1955 5.79786 17.1744 6.02013L14.5442 32.5833C14.5204 32.8241 14.1765 32.84 14.1288 32.6045Z" fill="url(#paint1_linear_9104_25245)"/>
<path d="M17.0606 27.6723L23.5592 18.2182C23.7814 17.8954 24.1677 17.7287 24.5567 17.7869L28.7136 18.4166C28.9808 18.4563 29.0708 18.7977 28.8591 18.9644L17.386 27.9793C17.1823 28.138 16.9151 27.8867 17.0606 27.675V27.6723Z" fill="url(#paint2_linear_9104_25245)"/>
<path d="M18.0317 21.1896L21.355 0.177764C21.3894 -0.0392077 21.6911 -0.0656677 21.7625 0.143366L24.7102 8.72699C24.7975 8.98365 24.7763 9.26412 24.6493 9.50491L18.4259 21.3219C18.3148 21.531 17.9946 21.4251 18.0317 21.1923V21.1896Z" fill="url(#paint3_linear_9104_25245)"/>
<path d="M3.78562 17.0434L4.52914 11.7646C4.5609 11.5476 4.85725 11.5079 4.94456 11.709L9.53008 22.3962C9.62269 22.6132 9.3528 22.801 9.18081 22.6396L4.06345 17.8372C3.84648 17.6334 3.74064 17.3344 3.78297 17.0407L3.78562 17.0434Z" fill="url(#paint4_linear_9104_25245)"/>
<defs>
<linearGradient id="paint0_linear_9104_25245" x1="-23.1163" y1="-50.7714" x2="-14.7087" y2="47.1108" gradientUnits="userSpaceOnUse">
<stop stop-color="#FF8E00"/>
<stop offset="1" stop-color="#F2A52B"/>
</linearGradient>
<linearGradient id="paint1_linear_9104_25245" x1="42.2771" y1="-11.3427" x2="42.5121" y2="38.4286" gradientUnits="userSpaceOnUse">
<stop stop-color="#FF8E00"/>
<stop offset="1" stop-color="#F2A52B"/>
</linearGradient>
<linearGradient id="paint2_linear_9104_25245" x1="34.7543" y1="-47.8743" x2="38.896" y2="44.0072" gradientUnits="userSpaceOnUse">
<stop stop-color="#FF8E00"/>
<stop offset="1" stop-color="#F2A52B"/>
</linearGradient>
<linearGradient id="paint3_linear_9104_25245" x1="30.8305" y1="-1.56354" x2="31.4269" y2="60.7326" gradientUnits="userSpaceOnUse">
<stop stop-color="#FF8E00"/>
<stop offset="1" stop-color="#F2A52B"/>
</linearGradient>
<linearGradient id="paint4_linear_9104_25245" x1="0.284461" y1="5.971" x2="14.6539" y2="36.1107" gradientUnits="userSpaceOnUse">
<stop stop-color="#FF8E00"/>
<stop offset="1" stop-color="#F2A52B"/>
</linearGradient>
</defs>
</svg>
